# xmcd CD database file
#
# Track frame offsets:
#	150
#	15333
#	32010
#	46488
#	64510
#	76391
#	88182
#	100175
#	124698
#	145332
#
# Disc length: 2185 seconds
#
# Revision: 0
# Processed by: cddbd v1.5.1PL0 Copyright (c) Steve Scherf et al.
# Submitted via: CDex 1.51
#
DISCID=7908870a
DTITLE=SPICY SOCKS - SPICY SOCKS
DYEAR=2005
DGENRE=J-Rock
TTITLE0=Never Yield
TTITLE1=Crazy 4 U
TTITLE2=Start to...
TTITLE3=Stupid
TTITLE4=Believe Yourself
TTITLE5=Wanna be
TTITLE6=Waiting
TTITLE7=Tell Me Lies
TTITLE8=Hill Top
TTITLE9=Standing By
EXTD=YEAR: 2005
EXTT0=
EXTT1=
EXTT2=
EXTT3=
EXTT4=
EXTT5=
EXTT6=
EXTT7=
EXTT8=
EXTT9=
PLAYORDER=
